<svg width="36" height="36" viewBox="0 0 36 36" fill="none" xmlns="http://www.w3.org/2000/svg">
<g clip-path="url(#clip0_3096_3552)">
<rect width="36" height="36" fill="white"/>
<path d="M29.7142 2C30.0895 5.918 31.8176 8.54645 36.0001 8.92282C32.1565 9.29303 30.0804 11.397 29.7354 15.3551C29.2996 11.3384 27.1902 9.16037 23.2256 8.95367C28.0951 8.27805 29.1694 5.93034 29.7112 2.00309L29.7142 2Z" fill="#F37421"/>
<path d="M10.1207 12.4518C11.1679 12.4518 12.117 13.0735 12.5372 14.0361L20.0669 31.3261C20.5852 32.5134 19.7166 33.8448 18.4243 33.8448C17.7029 33.8448 17.0515 33.4092 16.7713 32.7418L15.0833 28.7161H5.07062L3.34406 32.7839C3.07089 33.4268 2.4405 33.8448 1.74357 33.8448C0.489797 33.8448 -0.354222 32.5521 0.146586 31.3999L7.71126 14.0361C8.13152 13.0735 9.07708 12.4518 10.1242 12.4518H10.1207ZM13.7209 25.4105L10.0612 16.913L6.42946 25.4105H13.7209Z" fill="#F37421"/>
<path d="M25.0462 12.6028C26.0723 12.6028 26.9058 13.4388 26.9058 14.4681V31.9794C26.9058 33.0087 26.0723 33.8447 25.0462 33.8447C24.02 33.8447 23.1865 33.0087 23.1865 31.9794V14.4681C23.1865 13.4388 24.02 12.6028 25.0462 12.6028Z" fill="#0086FC"/>
</g>
<defs>
<clipPath id="clip0_3096_3552">
<rect width="36" height="36" fill="white"/>
</clipPath>
</defs>
</svg>
