<svg width="639" height="123" viewBox="0 0 639 123" fill="none" xmlns="http://www.w3.org/2000/svg">
<g clip-path="url(#clip0_3090_3500)">
<path d="M590.4 60.64C593.39 60.64 596.1 62.41 597.3 65.15L618.8 114.37C620.28 117.75 617.8 121.54 614.11 121.54C612.05 121.54 610.19 120.3 609.39 118.4L604.57 106.94H575.98L571.05 118.52C570.27 120.35 568.47 121.54 566.48 121.54C562.9 121.54 560.49 117.86 561.92 114.58L583.52 65.15C584.72 62.41 587.42 60.64 590.41 60.64H590.4ZM600.68 97.53L590.23 73.34L579.86 97.53H600.68Z" fill="#F37421"/>
<path d="M633.02 61.07C635.95 61.07 638.33 63.45 638.33 66.38V116.23C638.33 119.16 635.95 121.54 633.02 121.54C630.09 121.54 627.71 119.16 627.71 116.23V66.38C627.71 63.45 630.09 61.07 633.02 61.07Z" fill="#F37421"/>
<path d="M36.07 38.47H49.42L85.49 121.03H70.27L61.95 101.24H23.19L14.76 121.03H0L36.07 38.47ZM56.68 88.47L42.51 55.68L28.46 88.47H56.68Z" fill="#F37421"/>
<path d="M77.3003 59.2H91.8203L104.23 101.59L117.93 58.96H130.11L143.81 101.59L156.46 59.2H170.75L150.49 121.5H137.72L123.9 79.22L109.96 121.5H97.3103L77.2803 59.2H77.3003Z" fill="#F37421"/>
<path d="M168.42 90.23V90C168.42 69.51 182.36 57.91 197.11 57.91C207.3 57.91 213.74 62.95 218.19 68.8V59.2H232.36V121.03H218.19V110.72C213.62 117.16 207.18 122.31 197.11 122.31C182.59 122.31 168.42 110.72 168.42 90.22V90.23ZM218.42 90.23V90C218.42 78.05 209.99 70.21 200.5 70.21C191.01 70.21 182.7 77.7 182.7 90V90.23C182.7 102.18 190.9 110.02 200.5 110.02C210.1 110.02 218.42 102.06 218.42 90.23Z" fill="#F37421"/>
<path d="M237.99 111.31L273.71 70.79H239.28V59.2H291.74V68.92L256.02 109.44H291.74V121.03H237.99V111.31Z" fill="#F37421"/>
<path d="M305.15 39.06C307.71 39.06 309.78 41.13 309.78 43.69V116.41C309.78 118.97 307.71 121.04 305.15 121.04C302.59 121.04 300.52 118.97 300.52 116.41V43.69C300.52 41.13 302.59 39.06 305.15 39.06Z" fill="#0086FC"/>
<path d="M327.4 60.49C329.89 60.49 331.91 62.51 331.91 65V71.03C335.89 64.47 342.22 59.2 352.64 59.2C367.28 59.2 375.83 69.04 375.83 83.44V116.52C375.83 119.01 373.81 121.03 371.32 121.03C368.83 121.03 366.81 119.01 366.81 116.52V85.66C366.81 74.42 360.72 67.39 350.06 67.39C339.4 67.39 331.91 75 331.91 86.36V116.51C331.91 119 329.89 121.02 327.4 121.02C324.91 121.02 322.89 119 322.89 116.51V64.98C322.89 62.49 324.91 60.47 327.4 60.47V60.49Z" fill="#0086FC"/>
<path d="M382.159 90.94V90.71C382.159 70.92 396.559 59.21 411.089 59.21C422.329 59.21 429.589 65.3 434.279 72.09V40.06C434.279 37.57 436.299 35.55 438.789 35.55C441.279 35.55 443.299 37.57 443.299 40.06V116.53C443.299 119.02 441.279 121.04 438.789 121.04C436.299 121.04 434.279 119.02 434.279 116.53V108.86C429.359 116.12 422.219 122.33 411.089 122.33C396.569 122.33 382.159 110.86 382.159 90.95V90.94ZM434.619 90.82V90.58C434.619 76.64 423.959 67.28 412.719 67.28C401.479 67.28 391.409 75.94 391.409 90.58V90.82C391.409 105.11 401.359 114.24 412.719 114.24C424.079 114.24 434.619 104.76 434.619 90.82Z" fill="#0086FC"/>
<path d="M459.39 60.49C461.88 60.49 463.9 62.51 463.9 65V116.53C463.9 119.02 461.88 121.04 459.39 121.04C456.9 121.04 454.88 119.02 454.88 116.53V65C454.88 62.51 456.9 60.49 459.39 60.49Z" fill="#0086FC"/>
<path d="M471.979 90.94V90.71C471.979 70.92 486.379 59.21 500.909 59.21C512.149 59.21 519.409 65.3 524.099 72.09V65.01C524.099 62.52 526.119 60.5 528.609 60.5C531.099 60.5 533.119 62.52 533.119 65.01V116.54C533.119 119.03 531.099 121.05 528.609 121.05C526.119 121.05 524.099 119.03 524.099 116.54V108.87C519.179 116.13 512.039 122.34 500.909 122.34C486.389 122.34 471.979 110.87 471.979 90.96V90.94ZM524.439 90.82V90.58C524.439 76.64 513.779 67.28 502.539 67.28C491.299 67.28 481.229 75.94 481.229 90.58V90.82C481.229 105.11 491.189 114.24 502.539 114.24C513.889 114.24 524.439 104.76 524.439 90.82Z" fill="#0086FC"/>
<path d="M458.6 0C459.84 12.7 465.55 21.22 479.37 22.44C466.67 23.64 459.81 30.46 458.67 43.29C457.23 30.27 450.26 23.21 437.16 22.54C453.25 20.35 456.8 12.74 458.59 0.01L458.6 0Z" fill="#F37421"/>
<path d="M548.17 122.2C552.036 122.2 555.17 119.066 555.17 115.2C555.17 111.334 552.036 108.2 548.17 108.2C544.304 108.2 541.17 111.334 541.17 115.2C541.17 119.066 544.304 122.2 548.17 122.2Z" fill="#F37421"/>
</g>
<defs>
<clipPath id="clip0_3090_3500">
<rect width="638.33" height="122.32" fill="white"/>
</clipPath>
</defs>
</svg>
